<svg xmlns="http://www.w3.org/2000/svg" viewBox="0 0 250.59 183.31"><defs><style>.cls-1{fill:#2ac1fd;}.cls-2{fill:#99124a;}.cls-3{fill:#cc1863;}</style></defs><title>Asset 1</title><g id="Layer_2" data-name="Layer 2"><g id="Layer_1-2" data-name="Layer 1"><polygon class="cls-1" points="107.71 183.31 108.08 183.31 107.9 183.01 107.71 183.31"/><polygon class="cls-2" points="228.43 34.44 250.59 0 225.67 0 203.51 34.44 228.43 34.44"/><polygon class="cls-2" points="83.75 34.44 61.11 34.44 110.21 117.72 122.03 99.36 83.75 34.44"/><polygon class="cls-2" points="181.34 68.88 148.46 119.98 141.01 131.56 129.2 149.92 107.9 183.01 108.08 183.31 132.62 183.31 141.11 170.12 152.92 151.76 160.37 140.19 206.26 68.88 181.34 68.88"/><polygon class="cls-3" points="163.8 34.44 203.51 34.44 225.67 0 185.97 0 0 0 88.92 150.81 107.9 183.01 129.2 149.92 141.01 131.56 148.46 119.98 181.34 68.88 141.64 68.88 129.47 87.78 122.03 99.36 110.21 117.72 61.11 34.44 83.75 34.44 163.8 34.44"/></g></g></svg>