<svg id="Слой_1" data-name="Слой 1" xmlns="http://www.w3.org/2000/svg" viewBox="0 0 595.28 196"><defs><style>.cls-1{fill:#e94e1b;}.cls-2{fill:#fff;}</style></defs><path class="cls-1" d="M55.87,98C55.87,59.09,78.33,37,114.35,37c31.11,0,54.63,20.25,54.71,49.49H135.91c-.82-13.4-9.56-22.3-21.56-22.3-14.21,0-23.2,12.58-23.2,33.65,0,21.31,8.91,33.89,23.28,33.89,11.92,0,20.58-8.74,21.64-22.38h33.16c-.17,29.4-23.12,49.57-54.88,49.57C78.25,159,55.87,136.83,55.87,98Z"/><path class="cls-2" d="M258.4,156.92V111.35H216.91v45.57H182.29V39.08h34.62V83.83H258.4V39.08H293V156.92Z"/><path class="cls-2" d="M344,111.11c0,12.41,6.12,19.19,17.31,19.19s17.32-6.78,17.32-19.19v-72h34.62V115c0,26.86-20.82,44-51.94,44s-51.94-17.15-51.94-44V39.08H344Z"/><path class="cls-2" d="M429.56,156.92V39.08h34.63v50h.65l36.42-50H537.6L498.81,91.43l40.59,65.49H499.14l-25.72-43.28-9.23,12.41v30.87Z"/></svg>