<svg xmlns="http://www.w3.org/2000/svg" viewBox="0 0 299.26 97.78"><defs><style>.cls-1{fill:#333;stroke:#333;stroke-miterlimit:10;stroke-width:4px;}.cls-2{fill:#f7931e;}.cls-3{fill:#999;}</style></defs><title>Jl</title><g id="Слой_4" data-name="Слой 4"><rect class="cls-1" x="2.96" y="4.15" width="292.15" height="90.67" rx="12.74"/><path class="cls-2" d="M185.62,16.68h-28a3.13,3.13,0,0,0-2.87,4.37l21,48.47a3.13,3.13,0,0,0,6-.8l7-48.47A3.13,3.13,0,0,0,185.62,16.68Z"/><path class="cls-2" d="M196.58,19.13,182.32,83.5a3.08,3.08,0,0,0,.12,1.75h0a3.12,3.12,0,0,0,5.79.19l28.46-64.37a3.13,3.13,0,0,0-2.86-4.39h-14.2A3.13,3.13,0,0,0,196.58,19.13Z"/><path class="cls-3" d="M35.43,53.15c0,9.57,3.57,14.7,9.72,14.7,5.23,0,8.27-3.64,9-8.72A2.9,2.9,0,0,1,57,56.62H70.83a2.88,2.88,0,0,1,2.88,2.88v.1c0,15.09-12,24.85-28.76,24.85-19.72,0-30.51-12.4-30.51-31.44V47c0-19.09,10.79-31.4,30.51-31.4,16.8,0,28.76,9.72,28.76,24.91h0a2.88,2.88,0,0,1-2.88,2.88H57a2.9,2.9,0,0,1-2.86-2.51c-.73-5.07-3.77-8.67-9-8.67-6.15,0-9.72,5.12-9.72,14.74Z"/><path class="cls-3" d="M121.81,78.29V58.09H102.52v20.2a5,5,0,0,1-5,5H87.06a5,5,0,0,1-5-5V21.72a5,5,0,0,1,5-5H97.48a5,5,0,0,1,5,5V41.83h19.29V21.72a5,5,0,0,1,5-5h10.43a5,5,0,0,1,5,5V78.29a5,5,0,0,1-5,5H126.85A5,5,0,0,1,121.81,78.29Z"/><path class="cls-3" d="M263.83,48.26l17.48,28.83a4.11,4.11,0,0,1-3.51,6.24H263.73a4.11,4.11,0,0,1-3.56-2l-12.73-22L243.69,64a4.11,4.11,0,0,0-.88,2.55V79.22a4.11,4.11,0,0,1-4.11,4.11H226.41a4.11,4.11,0,0,1-4.11-4.11V20.79a4.11,4.11,0,0,1,4.11-4.11H238.7a4.11,4.11,0,0,1,4.11,4.11v22h.92l18.16-24.46a4.07,4.07,0,0,1,3.29-1.66h11.06a4.11,4.11,0,0,1,3.27,6.59L264.07,43.65A4.11,4.11,0,0,0,263.83,48.26Z"/></g></svg>